# xmcd
#
# Track frame offsets:
#	150
#	39858
#	59106
#	80832
#	107418
#	136068
#	159303
#	184007
#	215677
#	239871
#	268669
#
# Disc length: 3969 seconds
#
# Revision: 0
# Processed by: cddbd v1.5.2PL0 Copyright (c) Steve Scherf et al.
# Submitted via: EZCDAudioConverter 1.3.4.1
#
DISCID=9d0f7f0b
DTITLE=Jamiroquai - Return Of The Space Cowboy 1/2
DYEAR=1994
DGENRE=
TTITLE0=Just Another Story
TTITLE1=Stillness In Time
TTITLE2=Half The Man
TTITLE3=Light Years
TTITLE4=Manifest Destiny
TTITLE5=The Kids
TTITLE6=Mr. Moon
TTITLE7=Scam
TTITLE8=Journey To Arnhemland
TTITLE9=Morning Glory
TTITLE10=Space Cowboy
EXTD=
EXTT0=
EXTT1=
EXTT2=
EXTT3=
EXTT4=
EXTT5=
EXTT6=
EXTT7=
EXTT8=
EXTT9=
EXTT10=
PLAYORDER=
